<?xml version="1.0" standalone="no"?>
<!DOCTYPE svg PUBLIC "-//W3C//DTD SVG 20010904//EN"
 "http://www.w3.org/TR/2001/REC-SVG-20010904/DTD/svg10.dtd">
<svg version="1.0" xmlns="http://www.w3.org/2000/svg"
 width="225.000000pt" height="225.000000pt" viewBox="0 0 225.000000 225.000000"
 preserveAspectRatio="xMidYMid meet">
<metadata>
Created by potrace 1.14, written by Peter Selinger 2001-2017
</metadata>
<g transform="translate(0.000000,225.000000) scale(0.100000,-0.100000)"
fill="#000000" stroke="none">
<path d="M964 2091 c-136 -37 -261 -119 -339 -224 -93 -122 -125 -211 -132
-362 -10 -192 9 -238 302 -739 103 -175 189 -324 192 -332 4 -11 -6 -14 -40
-14 -83 0 -275 -30 -355 -55 -137 -43 -158 -90 -61 -138 229 -115 959 -115
1188 0 97 48 76 95 -61 138 -80 25 -272 55 -355 55 -37 0 -44 3 -39 15 3 9 66
118 139 243 277 469 315 542 343 652 24 94 15 261 -19 352 -70 192 -221 339
-407 399 -95 31 -262 35 -356 10z m300 -315 c109 -53 170 -151 170 -276 1 -61
-4 -86 -25 -131 -93 -198 -348 -246 -503 -94 -204 201 -50 548 236 532 46 -3
84 -13 122 -31z"/>
</g>
</svg>
